<svg xmlns="http://www.w3.org/2000/svg" xmlns:xlink="http://www.w3.org/1999/xlink" width="198" height="38.611" viewBox="0 0 198 38.611"><defs><filter id="a" x="0" y="0" width="36.195" height="38.611" filterUnits="userSpaceOnUse"><feOffset dy="3" input="SourceAlpha"/><feGaussianBlur stdDeviation="3" result="b"/><feFlood flood-opacity="0.161"/><feComposite operator="in" in2="b"/><feComposite in="SourceGraphic"/></filter></defs><g transform="translate(-50 -23)"><g transform="matrix(1, 0, 0, 1, 50, 23)" filter="url(#a)"><path d="M10.186,27.611a10.082,10.082,0,0,1-5.25-1.472h6.438a10.321,10.321,0,0,0,6.437-2A10.146,10.146,0,0,1,10.186,27.611ZM3.509,25.088h0a10.385,10.385,0,0,1,0-15.564Zm7.669-2.278H7.516V11.948h3.661a5.873,5.873,0,0,1,4.134,1.458,5.3,5.3,0,0,1,1.556,3.975,5.3,5.3,0,0,1-1.556,3.975A5.873,5.873,0,0,1,11.177,22.81ZM18.2,10.939a10.082,10.082,0,0,0-6.82-2.319H4.7a10.1,10.1,0,0,1,10.012-.548A10.31,10.31,0,0,1,18.2,10.938Z" transform="translate(9 -1)" fill="#fff"/></g><path d="M2.38-23.927h8.188a11.4,11.4,0,0,1,5.047,1.071,8.03,8.03,0,0,1,3.414,3.038,8.6,8.6,0,0,1,1.212,4.607A8.6,8.6,0,0,1,19.029-10.6a8.03,8.03,0,0,1-3.414,3.038,11.4,11.4,0,0,1-5.047,1.071H2.38Zm7.99,13.5a5,5,0,0,0,3.575-1.27,4.591,4.591,0,0,0,1.348-3.511,4.591,4.591,0,0,0-1.348-3.511,5,5,0,0,0-3.575-1.27H7.278v9.563Zm12.567-13.5h4.9V-6.495h-4.9ZM43.05-15.585h4.329v7.222a11.256,11.256,0,0,1-3.414,1.644,13.5,13.5,0,0,1-3.859.573,10.266,10.266,0,0,1-4.9-1.158,8.6,8.6,0,0,1-3.414-3.225,8.94,8.94,0,0,1-1.237-4.682,8.94,8.94,0,0,1,1.237-4.682,8.564,8.564,0,0,1,3.439-3.225A10.518,10.518,0,0,1,40.2-24.276a11.012,11.012,0,0,1,4.354.822,8.4,8.4,0,0,1,3.216,2.366l-3.117,2.839a5.479,5.479,0,0,0-4.206-1.942,4.856,4.856,0,0,0-3.587,1.357A4.89,4.89,0,0,0,35.5-15.211a5.292,5.292,0,0,0,.618,2.578,4.45,4.45,0,0,0,1.732,1.768,5.051,5.051,0,0,0,2.548.635A6.223,6.223,0,0,0,43.05-10.8ZM56.705-6.146a15.909,15.909,0,0,1-4.082-.523,10.006,10.006,0,0,1-3.216-1.395L51.015-11.7a10.373,10.373,0,0,0,2.7,1.245,10.2,10.2,0,0,0,3.018.473q2.82,0,2.82-1.42a1.175,1.175,0,0,0-.8-1.108,14.712,14.712,0,0,0-2.585-.76,24.546,24.546,0,0,1-3.265-.909,5.5,5.5,0,0,1-2.251-1.556,4.224,4.224,0,0,1-.94-2.889A5.025,5.025,0,0,1,50.57-21.5a5.8,5.8,0,0,1,2.585-2.03,10.578,10.578,0,0,1,4.218-.747,14.784,14.784,0,0,1,3.364.386,10.262,10.262,0,0,1,2.919,1.133L62.148-19.1a10.03,10.03,0,0,0-4.8-1.345,4,4,0,0,0-2.127.436,1.308,1.308,0,0,0-.668,1.133,1.123,1.123,0,0,0,.792,1.046,14.241,14.241,0,0,0,2.548.722,23.746,23.746,0,0,1,3.278.909,5.659,5.659,0,0,1,2.251,1.544,4.141,4.141,0,0,1,.952,2.876,4.926,4.926,0,0,1-.866,2.839,5.908,5.908,0,0,1-2.6,2.03A10.445,10.445,0,0,1,56.705-6.146Zm25.678-.349-.049-9.239L77.881-8.213H75.7l-4.428-7.272v8.99H66.749V-23.927h4.032l6.086,10.061L82.8-23.927h4.032l.049,17.433Zm8.089-17.433h4.9V-6.495h-4.9Zm8.51,0h4.9V-10.4h8.263v3.91H98.983ZM128.1-10.305v3.81H114.2V-23.927h13.581v3.81h-8.733v2.939h7.694v3.686h-7.694v3.188Z" transform="translate(80.18 54.53)" fill="#fff"/><path d="M1.54-15.484H4.709v11.2H1.54Zm16.167,0v11.2H15.1L10.152-10.25v5.971H7.046v-11.2H9.656L14.6-9.513v-5.971ZM25.615-4.055A6.631,6.631,0,0,1,22.453-4.8a5.566,5.566,0,0,1-2.2-2.073,5.717,5.717,0,0,1-.8-3.009,5.717,5.717,0,0,1,.8-3.009,5.566,5.566,0,0,1,2.2-2.073,6.631,6.631,0,0,1,3.161-.744,6.786,6.786,0,0,1,2.769.544A5.328,5.328,0,0,1,30.433-13.6L28.416-11.77a3.318,3.318,0,0,0-2.641-1.313,3.26,3.26,0,0,0-1.625.4,2.777,2.777,0,0,0-1.1,1.129,3.473,3.473,0,0,0-.392,1.673,3.473,3.473,0,0,0,.392,1.673,2.777,2.777,0,0,0,1.1,1.129,3.26,3.26,0,0,0,1.625.4,3.318,3.318,0,0,0,2.641-1.313l2.017,1.825A5.328,5.328,0,0,1,28.384-4.6,6.786,6.786,0,0,1,25.615-4.055Zm7.619-.08a1.791,1.791,0,0,1-1.3-.512,1.729,1.729,0,0,1-.528-1.3,1.71,1.71,0,0,1,.52-1.3,1.815,1.815,0,0,1,1.3-.5,1.808,1.808,0,0,1,1.313.5,1.724,1.724,0,0,1,.512,1.3,1.743,1.743,0,0,1-.52,1.3A1.784,1.784,0,0,1,33.234-4.135Z" transform="translate(212.941 52.435)" fill="#fff"/></g></svg>